<svg width="36" height="36" viewBox="0 0 36 36" fill="none" xmlns="http://www.w3.org/2000/svg">
<path d="M21.5 30.5C21.5 31.1093 20.9322 32.1044 18.9845 33.0359C17.1467 33.9149 14.5022 34.5 11.5 34.5C8.49775 34.5 5.85333 33.9149 4.01546 33.0359C2.06779 32.1044 1.5 31.1093 1.5 30.5C1.5 29.8907 2.06779 28.8956 4.01546 27.9641C5.85333 27.0851 8.49775 26.5 11.5 26.5C14.5022 26.5 17.1467 27.0851 18.9845 27.9641C20.9322 28.8956 21.5 29.8907 21.5 30.5Z" stroke="#152C5B" stroke-width="3"/>
<path d="M20.5 9.5C20.5 11.8491 19.3999 16.766 17.5442 21.1306C16.623 23.2973 15.5593 25.2209 14.4333 26.5761C13.2715 27.9745 12.2732 28.5 11.5 28.5C10.7268 28.5 9.72849 27.9745 8.56667 26.5761C7.4407 25.2209 6.37701 23.2973 5.45579 21.1306C3.60012 16.766 2.5 11.8491 2.5 9.5C2.5 5.21944 6.38466 1.5 11.5 1.5C16.6153 1.5 20.5 5.21944 20.5 9.5Z" fill="white" stroke="#152C5B" stroke-width="3"/>
<circle cx="11.5" cy="11.5" r="3.5" stroke="#FF498B" stroke-width="2"/>
</svg>
