<svg width="36" height="36" viewBox="0 0 36 36" fill="none" xmlns="http://www.w3.org/2000/svg">
<path d="M17.0489 4.42705C17.3483 3.50574 18.6517 3.50574 18.9511 4.42705L21.48 12.2102C21.6138 12.6223 21.9978 12.9012 22.431 12.9012H30.6147C31.5835 12.9012 31.9862 14.1408 31.2025 14.7102L24.5818 19.5205C24.2313 19.7752 24.0846 20.2265 24.2185 20.6385L26.7474 28.4217C27.0468 29.343 25.9923 30.1092 25.2086 29.5398L18.5878 24.7295C18.2373 24.4748 17.7627 24.4748 17.4122 24.7295L10.7914 29.5398C10.0077 30.1092 8.95325 29.343 9.2526 28.4217L11.7815 20.6385C11.9154 20.2265 11.7687 19.7752 11.4182 19.5205L4.79747 14.7102C4.01375 14.1408 4.41653 12.9012 5.38525 12.9012H13.569C14.0022 12.9012 14.3862 12.6223 14.52 12.2102L17.0489 4.42705Z" fill="#FFD53F"/>
</svg>
