<svg width="36" height="36" viewBox="0 0 36 36" fill="none" xmlns="http://www.w3.org/2000/svg">
<mask id="path-1-inside-1_5_120" fill="white">
<path fill-rule="evenodd" clip-rule="evenodd" d="M13.1265 7C12.3226 7 11.5967 7.4814 11.284 8.22205L10.1111 11H6C2.68629 11 0 13.6863 0 17V27C0 30.3137 2.68629 33 6 33H30C33.3137 33 36 30.3137 36 27V17C36 13.6863 33.3137 11 30 11H24.8889L23.716 8.22206C23.4033 7.4814 22.6774 7 21.8735 7H13.1265Z"/>
</mask>
<path d="M11.284 8.22205L14.0478 9.38897L14.0478 9.38897L11.284 8.22205ZM10.1111 11V14H12.1009L12.8749 12.1669L10.1111 11ZM24.8889 11L22.1251 12.1669L22.8991 14H24.8889V11ZM23.716 8.22206L20.9522 9.38897L20.9522 9.38897L23.716 8.22206ZM14.0478 9.38897C13.8914 9.7593 13.5285 10 13.1265 10V4C11.1166 4 9.30207 5.20351 8.52027 7.05514L14.0478 9.38897ZM12.8749 12.1669L14.0478 9.38897L8.52027 7.05514L7.34736 9.83308L12.8749 12.1669ZM6 14H10.1111V8H6V14ZM3 17C3 15.3431 4.34315 14 6 14V8C1.02944 8 -3 12.0294 -3 17H3ZM3 27V17H-3V27H3ZM6 30C4.34315 30 3 28.6569 3 27H-3C-3 31.9706 1.02944 36 6 36V30ZM30 30H6V36H30V30ZM33 27C33 28.6569 31.6569 30 30 30V36C34.9706 36 39 31.9706 39 27H33ZM33 17V27H39V17H33ZM30 14C31.6569 14 33 15.3431 33 17H39C39 12.0294 34.9706 8 30 8V14ZM24.8889 14H30V8H24.8889V14ZM20.9522 9.38897L22.1251 12.1669L27.6526 9.83308L26.4797 7.05514L20.9522 9.38897ZM21.8735 10C21.4715 10 21.1086 9.7593 20.9522 9.38897L26.4797 7.05514C25.6979 5.20351 23.8834 4 21.8735 4V10ZM13.1265 10H21.8735V4H13.1265V10Z" fill="#152C5B" mask="url(#path-1-inside-1_5_120)"/>
<circle cx="18" cy="22" r="5" stroke="#FF498B" stroke-width="2"/>
<path d="M29 17H26" stroke="#152C5B" stroke-width="2" stroke-linecap="round"/>
</svg>
